<svg width="21px" height="21px" viewBox="0 0 21 21" version="1.1" xmlns="http://www.w3.org/2000/svg" xmlns:xlink="http://www.w3.org/1999/xlink">
    <g id="Content-Modules" stroke="none" stroke-width="1" fill="none" fill-rule="evenodd">
        <g id="Content-Copy-2" transform="translate(-607.000000, -1970.000000)" fill="#BBBBBB">
            <g id="ICONS" transform="translate(1.000000, 1807.000000)">
                <path d="M614.5,171.15631 L607.491803,171.15631 C606.955306,171.15631 606.5,171.60094 606.5,172.14942 L606.5,173.661483 C606.5,174.197254 606.944045,174.654594 607.491803,174.654594 L614.5,174.654594 L614.5,182.322397 C614.5,182.783419 614.979691,183.15631 615.57142,183.15631 L617.674481,183.15631 C618.275293,183.15631 618.745902,182.782954 618.745902,182.322397 L618.745902,174.654594 L625.508197,174.654594 C626.044694,174.654594 626.5,174.209963 626.5,173.661483 L626.5,172.14942 C626.5,171.613649 626.055955,171.15631 625.508197,171.15631 L618.745902,171.15631 L618.745902,163.990222 C618.745902,163.529201 618.26621,163.15631 617.674481,163.15631 L615.57142,163.15631 C614.970608,163.15631 614.5,163.529665 614.5,163.990222 L614.5,171.15631 Z" id="Combined-Shape-Copy"></path>
            </g>
        </g>
    </g>
</svg>
