<?xml version="1.0" encoding="UTF-8"?>
<svg width="32px" height="32px" viewBox="0 0 32 32" version="1.1" xmlns="http://www.w3.org/2000/svg" xmlns:xlink="http://www.w3.org/1999/xlink">
    <!-- Generator: Sketch 40.3 (33839) - http://www.bohemiancoding.com/sketch -->
    <title>Page 1</title>
    <desc>Created with Sketch.</desc>
    <defs></defs>
    <g id="Content-Modules" stroke="none" stroke-width="1" fill="none" fill-rule="evenodd">
        <g id="Content-Copy-2" transform="translate(-485.000000, -1963.000000)" fill="#BBBBBB">
            <g id="ICONS" transform="translate(1.000000, 1807.000000)">
                <path d="M507.061862,177.348283 L515.644444,185.985185 C515.881481,186.222222 516,186.518519 516,186.814815 C516,187.111111 515.881481,187.407407 515.644444,187.644444 C515.407407,187.881481 515.111111,188 514.814815,188 C514.518519,188 514.222222,187.881481 514.044444,187.644444 L505.410129,179.010129 C503.140934,180.920065 500.217209,182.074074 497.037037,182.074074 C489.866667,182.074074 484,176.207407 484,169.037037 C484,161.866667 489.866667,156 497.037037,156 C504.207407,156 510.074074,161.866667 510.074074,169.037037 C510.074074,172.188392 508.940884,175.087927 507.061862,177.348283 Z M497.037037,179.703704 C491.17037,179.703704 486.37037,174.903704 486.37037,169.037037 C486.37037,163.17037 491.17037,158.37037 497.037037,158.37037 C502.903704,158.37037 507.703704,163.17037 507.703704,169.037037 C507.703704,174.903704 502.903704,179.703704 497.037037,179.703704" id="Page-1"></path>
            </g>
        </g>
    </g>
</svg>