<?xml version="1.0" encoding="UTF-8"?>
<svg width="338px" height="122px" viewBox="0 0 338 122" version="1.1" xmlns="http://www.w3.org/2000/svg" xmlns:xlink="http://www.w3.org/1999/xlink">
    <!-- Generator: Sketch 40.3 (33839) - http://www.bohemiancoding.com/sketch -->
    <title>PA50th-AAPA_Preferred_BorderReverse</title>
    <desc>Created with Sketch.</desc>
    <defs></defs>
    <g id="Symbols" stroke="none" stroke-width="1" fill="none" fill-rule="evenodd">
        <g id="Footer" transform="translate(-140.000000, -79.000000)">
            <g id="Group-2-Copy">
                <g id="PA50th-AAPA_Preferred_BorderReverse" transform="translate(141.000000, 79.000000)">
                    <polygon id="Fill-1" fill="#FFFFFF" points="0 120.987757 120.600189 120.987757 120.600189 0.0832512648 0 0.0832512648"></polygon>
                    <path d="M22.4664131,59.5101669 C24.1600485,59.2465379 26.2480921,59.1139073 28.7311545,59.1139073 C32.1176111,59.1139073 35.201444,59.64443 37.9865197,60.7036391 C40.7697638,61.7626442 43.1590067,63.256882 45.1536378,65.184312 C47.1470478,67.1135784 48.6705463,69.3646273 49.7255578,71.9354182 C50.7785342,74.5068212 51.3056329,77.3428735 51.3056329,80.4429629 C51.3056329,83.9227841 50.6851217,87.1181636 49.4432853,90.0303255 C48.2020594,92.940855 46.5082205,95.4375767 44.3642108,97.5190624 C42.2197941,99.5966712 39.6604143,101.22354 36.6887171,102.397423 C33.7151884,103.568042 30.497851,104.155494 27.0381296,104.155494 C24.2530539,104.155494 21.3751763,103.750256 18.4028686,102.943862 C15.4299503,102.133998 12.4727026,100.935221 10.2149291,99.6854317 L11.0873895,95.1410961 C13.4955591,96.4992344 16.4841478,97.798403 19.0801599,98.6666239 C21.676579,99.5330084 24.441507,99.9680371 27.3765718,99.9680371 C30.1596124,99.9680371 32.7187886,99.513828 35.0518619,98.606226 C37.3835106,97.6959713 39.4151811,96.4102698 41.1470769,94.7462648 C42.8777517,93.0806273 44.2323343,91.0558668 45.2104179,88.6740236 C46.1874839,86.2887116 46.6779503,83.6203862 46.6779503,80.6690472 C46.6779503,78.1723255 46.2442641,75.8647555 45.3797408,73.7463373 C44.5137929,71.6279191 43.2919007,69.7923103 41.7114185,68.2399191 C40.1313434,66.6891602 38.2128262,65.4779359 35.9550527,64.6078786 C33.6972792,63.7378212 31.1753459,63.3011602 28.3929158,63.3011602 C26.8124337,63.3011602 25.4187765,63.3576813 24.2164216,63.4709275 C23.0116245,63.5839696 21.9197771,63.7361889 20.9427111,63.9235042 C19.9642205,64.112656 19.0414924,64.3391484 18.1773761,64.6025734 C17.3116317,64.8680388 15.7022508,65.4554907 15.4120412,65.564656 C15.283421,65.6134233 13.6528746,66.3349342 12.6578995,67.0925616 C12.7124409,66.7250725 13.3805742,63.4142024 13.3805742,63.4144064 L19.893805,30.0292209 L49.3869122,30.0292209 L48.5258486,34.4429663 L22.8980642,34.4429663 L17.7823574,60.6983339 C19.2110188,60.1712799 20.7737953,59.7752243 22.4664131,59.5101669" id="Fill-3" fill="#002D4B"></path>
                    <path d="M103.904184,56.9069325 C103.904184,53.5791265 103.340046,50.4990337 102.211159,47.6623693 C101.081866,44.826113 99.5388298,42.3310236 97.5832732,40.1758769 C95.6260884,38.020118 93.2749025,36.3367285 90.5286978,35.1273406 C87.7808649,33.9179528 84.7527947,33.3111164 81.4428589,33.3111164 C78.2061878,33.3111164 75.2151569,33.9179528 72.4689522,35.1273406 C69.7211193,36.3367285 67.3512102,38.020118 65.3582071,40.1758769 C63.3637795,42.3310236 61.8203368,44.826113 60.730728,47.6623693 C59.6384737,50.4990337 59.0934658,53.5791265 59.0934658,56.9069325 C59.0934658,60.1608735 59.6384737,63.2232142 60.730728,66.0966071 C61.8203368,68.970204 63.3637795,71.4846779 65.3582071,73.6402327 C67.3512102,75.7955835 69.7211193,77.478973 72.4689522,78.6885649 C75.2151569,79.8981568 78.2061878,80.5027487 81.4428589,80.5027487 C84.7527947,80.5027487 87.7808649,79.8981568 90.5286978,78.6885649 C93.2749025,77.478973 95.6260884,75.7955835 97.5832732,73.6402327 C99.5388298,71.4846779 101.081866,68.970204 102.211159,66.0966071 C103.340046,63.2232142 103.904184,60.1608735 103.904184,56.9069325 L103.904184,56.9069325 Z M108.53207,56.9069325 C108.53207,60.8980961 107.815704,64.5866577 106.387247,67.9746577 C104.957161,71.3628617 103.018495,74.2995093 100.574304,76.7839882 C98.1286881,79.2705076 95.2695336,81.2085481 91.9962302,82.6019865 C88.7229267,83.9933845 85.2043901,84.6900017 81.4428589,84.6900017 C77.7547959,84.6900017 74.255593,83.9933845 70.9450466,82.6019865 C67.6330757,81.2085481 64.7743283,79.2705076 62.3667692,76.7839882 C59.9579891,74.2995093 58.0394718,71.3628617 56.6104034,67.9746577 C55.1803174,64.5866577 54.4659867,60.8980961 54.4659867,56.9069325 C54.4659867,52.9178094 55.1803174,49.2274115 56.6104034,45.8394115 C58.0394718,42.4514115 59.9579891,39.5161922 62.3667692,37.0298769 C64.7743283,34.545602 67.6330757,32.6073575 70.9450466,31.2141231 C74.255593,29.8208887 77.7547959,29.1240675 81.4428589,29.1240675 C85.2043901,29.1240675 88.7229267,29.8208887 91.9962302,31.2141231 C95.2695336,32.6073575 98.1286881,34.545602 100.574304,37.0298769 C103.018495,39.5161922 104.957161,42.4514115 106.387247,45.8394115 C107.815704,49.2274115 108.53207,52.9178094 108.53207,56.9069325 L108.53207,56.9069325 Z" id="Fill-4" fill="#002D4B"></path>
                    <polyline id="Fill-5" fill="#002D4B" points="63.7103622 98.8931164 63.7103622 101.475334 61.5142532 101.475334 61.5142532 98.8780169 59.0700618 94.4471315 61.3968262 94.4471315 62.6111884 97.0587319 63.7966517 94.4471315 66.1384761 94.4471315 63.7103622 98.8931164"></polyline>
                    <polyline id="Fill-6" fill="#002D4B" points="68.7214634 101.475334 68.7214634 94.4471315 74.1947426 94.4471315 74.1947426 96.0907319 70.8003489 96.0907319 70.8003489 97.1909545 73.6249061 97.1909545 73.6249061 98.7168196 70.8003489 98.7168196 70.8003489 99.8317336 74.1947426 99.8317336 74.1947426 101.475334 68.7214634 101.475334"></polyline>
                    <path d="M81.1015675,96.1492934 L80.2525112,98.8925042 L81.9506239,98.8925042 L81.1015675,96.1492934 L81.1015675,96.1492934 Z M84.9357529,101.680605 L82.7551108,101.680605 L82.3018873,100.374703 L79.9010442,100.374703 L79.5064325,101.680605 L77.2824422,101.680605 L79.6832853,94.652199 L82.5798861,94.652199 L84.9357529,101.680605 L84.9357529,101.680605 Z" id="Fill-7" fill="#002D4B"></path>
                    <path d="M91.1551108,97.88043 C91.525301,97.8708398 91.8138825,97.7830995 92.0180061,97.6161889 C92.2235542,97.4505025 92.3257177,97.2056459 92.3257177,96.8828432 C92.3257177,96.5896273 92.2306772,96.3621147 92.0395784,96.2005093 C91.8499043,96.039312 91.5450418,95.9585093 91.125805,95.9585093 L90.3947862,95.9585093 L90.3947862,97.8951214 L91.1551108,97.88043 L91.1551108,97.88043 Z M90.4090321,101.475334 L88.2137371,101.475334 L88.2137371,94.4471315 L91.5503331,94.4471315 C92.5351326,94.4471315 93.2816184,94.6546476 93.7885694,95.0711079 C94.2965379,95.4867521 94.5497081,96.0466577 94.5497081,96.7506206 C94.5497081,97.1909545 94.4400145,97.5870101 94.2202205,97.9393997 C94.0016475,98.2911771 93.6621878,98.5607234 93.2038764,98.7459983 L94.8275033,101.475334 L92.4720436,101.475334 L91.2426214,99.1863322 L90.4090321,99.2304064 L90.4090321,101.475334 L90.4090321,101.475334 Z" id="Fill-8" fill="#002D4B"></path>
                    <path d="M100.856984,100.008234 C101.158997,100.008234 101.403823,99.9613035 101.589224,99.868258 C101.774013,99.7756206 101.867019,99.6401332 101.867019,99.4638364 C101.867019,99.3656897 101.830793,99.284887 101.756511,99.2210202 C101.684671,99.1571535 101.579251,99.0983879 101.442491,99.0445194 C101.306544,98.990855 101.142716,98.9398432 100.952431,98.8902597 C100.761943,98.8408803 100.554563,98.7872159 100.330699,98.7284503 C100.067964,98.6696847 99.7960703,98.588882 99.517868,98.48543 C99.2396657,98.3825902 98.9860884,98.2479191 98.7575433,98.0810084 C98.5277771,97.914914 98.3405451,97.7059696 98.1934052,97.4564199 C98.0474864,97.2058499 97.9748322,96.899371 97.9748322,96.536575 C97.9748322,95.8501602 98.2133495,95.2984165 98.6911981,94.88114 C99.1696572,94.4646796 99.8961987,94.2563474 100.871637,94.2563474 C101.496218,94.2563474 102.043465,94.3177656 102.510527,94.4397858 C102.979217,94.5622142 103.378714,94.7064755 103.711661,94.872774 L103.359583,96.6039106 C102.998958,96.4380202 102.598852,96.2957993 102.160281,96.1786762 C101.719879,96.061145 101.32079,96.0027875 100.959554,96.0027875 C100.393584,96.0027875 100.110905,96.1588836 100.110905,96.4720961 C100.110905,96.5696307 100.157306,96.652882 100.250108,96.7212378 C100.343113,96.7900017 100.45993,96.8512159 100.600964,96.9044722 C100.742202,96.9587487 100.901553,97.0052715 101.077185,97.0440405 C101.252409,97.0830135 101.422139,97.1272917 101.589224,97.176059 C101.871293,97.245027 102.147256,97.3307268 102.415893,97.4331585 C102.683513,97.5353862 102.927525,97.6678128 103.147319,97.8294182 C103.367113,97.9904115 103.541931,98.1885413 103.674418,98.4231956 C103.806294,98.6584621 103.872233,98.9418836 103.872233,99.2740725 C103.872233,99.9786476 103.611532,100.556101 103.089318,101.005617 C102.5669,101.455541 101.793551,101.680605 100.769473,101.680605 C100.183966,101.680605 99.6354985,101.616943 99.1224422,101.490229 C98.6108104,101.363108 98.1934052,101.211093 97.8718546,101.035 L98.2080581,99.3183508 C98.5790624,99.518317 99.0011484,99.6835953 99.4741127,99.8131653 C99.947891,99.9431433 100.40783,100.008234 100.856984,100.008234" id="Fill-9" fill="#002D4B"></path>
                    <path d="M23.7275833,18.1675481 L23.2289764,18.1675481 L22.8830042,19.9152125 L23.6050684,19.9152125 C24.4036535,19.9076627 24.7339552,19.437946 24.7339552,18.9529258 C24.7339552,18.4985126 24.3885936,18.1675481 23.7275833,18.1675481 L23.7275833,18.1675481 Z M23.5511375,20.6930405 L22.7604894,20.7007943 L22.4607147,22.1944199 L21.5314743,22.1944199 L22.4607147,17.3819663 L23.8967026,17.3819663 C25.0642568,17.3819663 25.7016596,18.1059258 25.7016596,18.8604924 C25.7016596,19.8921551 24.9871254,20.6930405 23.5511375,20.6930405 L23.5511375,20.6930405 Z" id="Fill-10" fill="#002D4B"></path>
                    <path d="M28.2286808,18.2444739 L27.0692671,20.2694384 L28.513192,20.2694384 L28.2286808,18.2444739 L28.2286808,18.2444739 Z M29.7263331,22.1944199 L28.7895627,22.1944199 L28.6131169,21.0548162 L26.6315106,21.0548162 L25.9709073,22.1944199 L24.9879394,22.1944199 L27.8218583,17.3899241 L28.935278,17.3899241 L29.7263331,22.1944199 L29.7263331,22.1944199 Z" id="Fill-11" fill="#002D4B"></path>
                    <path d="M31.8160048,22.3099106 C31.3015239,22.3099106 30.7793095,22.1791164 30.3568165,21.9556847 L30.5566663,21.1935683 C31.0019528,21.4476071 31.4781732,21.6092125 31.8699358,21.6092125 C32.1617735,21.6092125 32.4147402,21.4706644 32.4147402,21.201118 C32.4147402,20.9701366 32.1617735,20.8546459 31.7545439,20.7085481 C31.1094076,20.5081737 30.748579,20.2386273 30.748579,19.6764772 C30.748579,18.9914907 31.3397844,18.5295278 32.1617735,18.5295278 C32.6609909,18.5295278 33.1602084,18.6448145 33.6054949,18.876 L33.3979116,19.6458702 C32.9298316,19.3840776 32.5226021,19.2375717 32.1157795,19.2375717 C31.8469388,19.2375717 31.6240921,19.3610202 31.6240921,19.5920017 C31.6240921,19.8229831 31.8776693,19.9152125 32.2846953,20.0694722 C32.9218946,20.2851501 33.2906602,20.5467386 33.2906602,21.1241922 C33.2906602,21.8248904 32.6917214,22.3099106 31.8160048,22.3099106" id="Fill-12" fill="#002D4B"></path>
                    <path d="M34.4966784,22.3099106 C34.1356463,22.3099106 33.8822726,22.0483221 33.8822726,21.7091956 C33.8822726,21.3706813 34.1356463,21.1164384 34.4966784,21.1164384 C34.857507,21.1164384 35.1031472,21.3706813 35.1031472,21.7091956 C35.1031472,22.0483221 34.857507,22.3099106 34.4966784,22.3099106" id="Fill-13" fill="#002D4B"></path>
                    <polyline id="Fill-14" fill="#002D4B" points="40.2880485 22.1944199 40.6796075 20.1772091 38.452361 20.1772091 38.0681284 22.1944199 37.1311545 22.1944199 38.0605984 17.3819663 38.9973689 17.3819663 38.6135433 19.3610202 40.8405863 19.3610202 41.2168819 17.3819663 42.1534488 17.3819663 41.2248189 22.1944199 40.2880485 22.1944199"></polyline>
                    <path d="M44.9576548,20.0539646 C44.9810588,19.9770388 45.0038522,19.8460405 45.0038522,19.7766644 C45.0038522,19.3916273 44.781209,19.191661 44.4203804,19.191661 C43.9824204,19.191661 43.6291217,19.5303794 43.5139334,20.0615143 L44.9576548,20.0539646 L44.9576548,20.0539646 Z M43.414212,20.639172 C43.414212,21.2935514 43.859702,21.5861551 44.4047099,21.5861551 C44.742745,21.5861551 45.0881066,21.4706644 45.3107498,21.3551737 L45.4414052,22.0942327 C45.1729715,22.225231 44.711811,22.3099106 44.3279855,22.3099106 C43.2756196,22.3099106 42.5079685,21.7016459 42.5079685,20.6081568 C42.5079685,19.5150759 43.3140836,18.5295278 44.4971048,18.5295278 C45.3186869,18.5295278 45.8712247,18.9759831 45.8712247,19.7613609 C45.8712247,20.0153997 45.8103743,20.323511 45.7104494,20.5620422 L43.414212,20.5850995 L43.414212,20.639172 L43.414212,20.639172 Z" id="Fill-15" fill="#002D4B"></path>
                    <path d="M48.7214246,20.5389848 C47.8151811,20.569796 47.3546311,20.7854739 47.3546311,21.1703069 C47.3546311,21.4476071 47.5695409,21.6322698 47.8613786,21.6322698 C48.1605427,21.6322698 48.3986529,21.4937218 48.5600388,21.3627234 L48.7214246,20.5389848 L48.7214246,20.5389848 Z M48.8368165,19.969285 C48.9135409,19.5150759 48.6603707,19.2761366 48.0915518,19.2761366 C47.7384567,19.2761366 47.3159637,19.3995852 47.001129,19.5611906 L46.9244046,18.8064199 C47.2388322,18.6603221 47.7459867,18.5295278 48.2297371,18.5295278 C49.4896863,18.5295278 49.9270357,19.1453423 49.7198595,20.1386442 L49.4972162,21.1703069 C49.4357553,21.4629106 49.4664858,21.5706476 49.7349194,21.5784013 L49.5354767,22.2713457 C48.8368165,22.3407218 48.5911763,22.0483221 48.5521018,21.7632681 L48.5449788,21.7632681 C48.2682011,22.0636256 47.8998425,22.3023609 47.4698195,22.3023609 C46.8548031,22.3023609 46.4481841,21.8018331 46.4481841,21.3013052 C46.4481841,20.5775497 47.1395179,19.9921383 48.813616,20.0770219 L48.8368165,19.969285 L48.8368165,19.969285 Z" id="Fill-16" fill="#002D4B"></path>
                    <polyline id="Fill-17" fill="#002D4B" points="50.5495821 22.1944199 51.548017 17.0277403 52.4772574 16.9277572 51.4560291 22.1944199 50.5495821 22.1944199"></polyline>
                    <path d="M54.7279079,22.1944199 C54.5050612,22.263796 54.1981635,22.3099106 53.9138558,22.3099106 C53.3147135,22.3099106 52.8232296,22.0173069 52.8232296,21.3859848 C52.8232296,21.2706981 52.8462265,21.1472496 52.8692235,21.0242091 L53.2379891,19.4148887 L52.7082447,19.3763238 L52.7387717,18.7988702 L53.4067014,18.6217572 L53.5908807,17.8363794 L54.4592707,17.8363794 L54.2824179,18.6678718 L55.1886614,18.6678718 L55.1654609,19.4148887 L54.0827717,19.4148887 L53.737003,20.9856442 C53.7219431,21.0470624 53.6987426,21.131742 53.6987426,21.2166256 C53.6987426,21.4706644 53.8829219,21.555344 54.1440291,21.555344 C54.3129449,21.555344 54.4592707,21.5167791 54.6051896,21.4629106 L54.7279079,22.1944199" id="Fill-18" fill="#002D4B"></path>
                    <path d="M57.9383259,22.1944199 L58.3453519,20.0925295 C58.3608189,20.0000961 58.3760824,19.8999089 58.3760824,19.8150253 C58.3760824,19.4610034 58.1764361,19.3147015 57.830871,19.3147015 C57.5312998,19.3147015 57.2471956,19.476511 57.0245524,19.6919848 L56.5403949,22.1944199 L55.6345584,22.1944199 L56.6325863,17.0277403 L57.5620303,16.9277572 L57.1478813,19.0990236 C57.5003658,18.768059 57.9000654,18.5295278 58.322762,18.5295278 C58.9599612,18.5295278 59.3362568,18.9298685 59.3362568,19.5226256 C59.3362568,19.6226088 59.3285233,19.7380995 59.3053228,19.8460405 L58.8527099,22.1944199 L57.9383259,22.1944199" id="Fill-19" fill="#002D4B"></path>
                    <path d="M61.8166735,22.3099106 C60.8182386,22.3099106 60.0275906,21.732457 60.0275906,20.6161147 C60.0275906,19.4993642 60.8571096,18.5295278 62.0551908,18.5295278 C62.5696717,18.5295278 63.0155687,18.6448145 63.3993943,18.876 L63.160877,19.6305666 C62.7770515,19.3916273 62.4469534,19.2685868 62.0781878,19.2685868 C61.3182701,19.2685868 60.949301,20.0076459 60.949301,20.5775497 C60.949301,21.2472327 61.35592,21.5630978 61.9322689,21.5630978 C62.2239031,21.5630978 62.5312078,21.4706644 62.761788,21.3706813 L62.8922399,22.0942327 C62.6311326,22.225231 62.2086396,22.3099106 61.8166735,22.3099106" id="Fill-20" fill="#002D4B"></path>
                    <path d="M65.8572211,20.5389848 C64.9507741,20.569796 64.4902241,20.7854739 64.4902241,21.1703069 C64.4902241,21.4476071 64.7047268,21.6322698 64.997175,21.6322698 C65.2963392,21.6322698 65.5346529,21.4937218 65.6958353,21.3627234 L65.8572211,20.5389848 L65.8572211,20.5389848 Z M65.9720024,19.969285 C66.0491339,19.5150759 65.7955566,19.2761366 65.2271448,19.2761366 C64.8742532,19.2761366 64.4515566,19.3995852 64.1365185,19.5611906 L64.0597941,18.8064199 C64.3746287,18.6603221 64.8813761,18.5295278 65.3653301,18.5295278 C66.6248722,18.5295278 67.0626287,19.1453423 66.8554525,20.1386442 L66.6326057,21.1703069 C66.5713483,21.4629106 66.6016717,21.5706476 66.8707159,21.5784013 L66.6708661,22.2713457 C65.9720024,22.3407218 65.7263622,22.0483221 65.6881018,21.7632681 L65.6801647,21.7632681 C65.4039976,22.0636256 65.035232,22.3023609 64.605209,22.3023609 C63.9910067,22.3023609 63.5835736,21.8018331 63.5835736,21.3013052 C63.5835736,20.5775497 64.2747038,19.9921383 65.9494125,20.0770219 L65.9720024,19.969285 L65.9720024,19.969285 Z" id="Fill-21" fill="#002D4B"></path>
                    <path d="M68.4304397,22.1944199 L67.5237892,22.1944199 L68.2073895,18.6678718 L69.1368334,18.5370776 L69.0371121,19.0990236 C69.2750188,18.7450017 69.6439879,18.5295278 69.9893495,18.5295278 C70.2040557,18.5295278 70.4118425,18.5833963 70.5652913,18.6909292 L70.3503816,19.5303794 C70.1582653,19.4226425 69.9738825,19.36857 69.7585657,19.36857 C69.3977371,19.36857 69.1136329,19.5689444 68.8832562,19.8846054 L68.4304397,22.1944199" id="Fill-22" fill="#002D4B"></path>
                    <path d="M73.1690369,20.0539646 C73.1918304,19.9770388 73.2148274,19.8460405 73.2148274,19.7766644 C73.2148274,19.3916273 72.9919806,19.191661 72.6313555,19.191661 C72.1938025,19.191661 71.8396899,19.5303794 71.7251121,20.0615143 L73.1690369,20.0539646 L73.1690369,20.0539646 Z M71.6251872,20.639172 C71.6251872,21.2935514 72.0706772,21.5861551 72.6160921,21.5861551 C72.9539237,21.5861551 73.2992853,21.4706644 73.5223356,21.3551737 L73.6525839,22.0942327 C73.3839467,22.225231 72.9227862,22.3099106 72.5389606,22.3099106 C71.4872053,22.3099106 70.7191472,21.7016459 70.7191472,20.6081568 C70.7191472,19.5150759 71.5252623,18.5295278 72.70808,18.5295278 C73.5298655,18.5295278 74.0828104,18.9759831 74.0828104,19.7613609 C74.0828104,20.0153997 74.0213495,20.323511 73.9214246,20.5620422 L71.6251872,20.5850995 L71.6251872,20.639172 L71.6251872,20.639172 Z" id="Fill-23" fill="#002D4B"></path>
                    <polyline id="Fill-24" fill="#002D4B" points="78.0382895 20.3388145 77.6776644 22.1944199 76.7712174 22.1944199 77.1401866 20.3080034 76.0265633 17.3819663 77.0093277 17.3819663 77.7395324 19.4840607 79.2365742 17.3819663 80.2732695 17.3819663 78.0382895 20.3388145"></polyline>
                    <path d="M81.4023598,19.2375717 C80.6961696,19.2375717 80.3276075,20.0229494 80.3276075,20.6544755 C80.3276075,21.2241754 80.6273822,21.6016627 81.1493931,21.6016627 C81.8252598,21.6016627 82.2092889,20.8701535 82.2092889,20.1847589 C82.2092889,19.6226088 81.9174512,19.2375717 81.4023598,19.2375717 L81.4023598,19.2375717 Z M81.1033992,22.3099106 C80.1045572,22.3099106 79.4215675,21.6322698 79.4215675,20.639172 C79.4215675,19.5226256 80.2354161,18.5295278 81.4489643,18.5295278 C82.4549291,18.5295278 83.1232659,19.2455295 83.1232659,20.2002664 C83.1232659,21.3321164 82.3242738,22.3099106 81.1033992,22.3099106 L81.1033992,22.3099106 Z" id="Fill-25" fill="#002D4B"></path>
                    <path d="M85.2125306,18.6448145 L84.8136451,20.6850826 C84.797771,20.7777201 84.7676511,20.9393255 84.7676511,21.0548162 C84.7676511,21.3551737 84.9436899,21.5167791 85.289255,21.5167791 C85.5814997,21.5167791 85.9036608,21.3396661 86.1110406,21.1241922 L86.5874646,18.6448145 L87.4930975,18.6448145 L86.8103113,22.1868702 L85.8729303,22.3099106 L85.9807922,21.7402108 C85.6810176,22.0405683 85.2432611,22.3099106 84.8285015,22.3099106 C84.1756317,22.3099106 83.8150067,21.90957 83.8150067,21.3627234 C83.8150067,21.239683 83.8378001,21.0242091 83.8687341,20.9009646 L84.2989606,18.6448145 L85.2125306,18.6448145" id="Fill-26" fill="#002D4B"></path>
                    <polyline id="Fill-27" fill="#002D4B" points="91.9868686 18.2059089 91.2112804 22.1944199 90.2818365 22.1944199 91.0494876 18.2059089 89.4445839 18.2059089 89.6059697 17.3819663 93.7452211 17.3819663 93.5917723 18.2059089 91.9868686 18.2059089"></polyline>
                    <path d="M93.8223525,22.1944199 L92.9165161,22.1944199 L93.6001163,18.6678718 L94.5291532,18.5370776 L94.4292283,19.0990236 C94.6673386,18.7450017 95.0361042,18.5295278 95.3816693,18.5295278 C95.596172,18.5295278 95.8041623,18.5833963 95.9576111,18.6909292 L95.7422944,19.5303794 C95.5505851,19.4226425 95.3662023,19.36857 95.1512925,19.36857 C94.7902604,19.36857 94.5059528,19.5689444 94.275576,19.8846054 L93.8223525,22.1944199" id="Fill-28" fill="#002D4B"></path>
                    <path d="M97.6164458,18.6448145 L97.2171532,20.6850826 C97.2018898,20.7777201 97.1715663,20.9393255 97.1715663,21.0548162 C97.1715663,21.3551737 97.3480121,21.5167791 97.6935772,21.5167791 C97.9856184,21.5167791 98.3077795,21.3396661 98.5153628,21.1241922 L98.9911763,18.6448145 L99.8974197,18.6448145 L99.2142265,22.1868702 L98.2772526,22.3099106 L98.3847075,21.7402108 C98.0851363,22.0405683 97.6475833,22.3099106 97.2328237,22.3099106 C96.579954,22.3099106 96.2187184,21.90957 96.2187184,21.3627234 C96.2187184,21.239683 96.2419188,21.0242091 96.2728528,20.9009646 L96.7028758,18.6448145 L97.6164458,18.6448145" id="Fill-29" fill="#002D4B"></path>
                    <path d="M101.610999,22.3099106 C101.096111,22.3099106 100.573897,22.1791164 100.150997,21.9556847 L100.351254,21.1935683 C100.79654,21.4476071 101.272761,21.6092125 101.66432,21.6092125 C101.956361,21.6092125 102.209735,21.4706644 102.209735,21.201118 C102.209735,20.9701366 101.956361,20.8546459 101.549335,20.7085481 C100.904402,20.5081737 100.542963,20.2386273 100.542963,19.6764772 C100.542963,18.9914907 101.134372,18.5295278 101.956361,18.5295278 C102.455375,18.5295278 102.954999,18.6448145 103.400286,18.876 L103.19311,19.6458702 C102.724419,19.3840776 102.317393,19.2375717 101.910367,19.2375717 C101.641526,19.2375717 101.419087,19.3610202 101.419087,19.5920017 C101.419087,19.8229831 101.672257,19.9152125 102.078876,20.0694722 C102.716686,20.2851501 103.084841,20.5467386 103.084841,21.1241922 C103.084841,21.8248904 102.486105,22.3099106 101.610999,22.3099106" id="Fill-30" fill="#002D4B"></path>
                    <path d="M106.050229,22.1944199 C105.827586,22.263796 105.519874,22.3099106 105.236177,22.3099106 C104.636831,22.3099106 104.145347,22.0173069 104.145347,21.3859848 C104.145347,21.2706981 104.168548,21.1472496 104.191952,21.0242091 L104.560107,19.4148887 L104.030362,19.3763238 L104.061093,18.7988702 L104.729226,18.6217572 L104.913405,17.8363794 L105.780981,17.8363794 L105.604535,18.6678718 L106.511186,18.6678718 L106.487985,19.4148887 L105.404889,19.4148887 L105.059528,20.9856442 C105.044468,21.0470624 105.021267,21.131742 105.021267,21.2166256 C105.021267,21.4706644 105.205446,21.555344 105.466554,21.555344 C105.635266,21.555344 105.780981,21.5167791 105.927307,21.4629106 L106.050229,22.1944199" id="Fill-31" fill="#002D4B"></path>
                    <path d="M110.073071,18.7392884 L110.080601,17.6247825 L110.038677,17.6247825 L109.683547,18.6970506 L109.335336,18.6970506 L109.034137,17.6247825 L108.992213,17.6247825 L108.973286,18.7392884 L108.6902,18.7392884 L108.716453,17.3070809 L109.255559,17.3070809 L109.500182,18.3562917 L109.545565,18.3562917 L109.843712,17.3070809 L110.367758,17.3070809 L110.382411,18.7392884 L110.073071,18.7392884 L110.073071,18.7392884 Z M107.964472,17.5902985 L107.964472,18.7392884 L107.651469,18.7392884 L107.651469,17.5902985 L107.147164,17.5902985 L107.147164,17.3070809 L108.514975,17.3070809 L108.514975,17.5902985 L107.964472,17.5902985 L107.964472,17.5902985 Z" id="Fill-32" fill="#002D4B"></path>
                    <path d="M151.622697,79.1013524 C150.18101,78.1039696 148.758251,77.1594351 147.3534,76.2683609 L144.748841,78.8811855 C146.106883,79.8147015 147.488126,80.8071872 148.889313,81.8410944 L151.622697,79.1013524" id="Fill-33" fill="#FFFFFF"></path>
                    <path d="M175.072281,91.5735346 C171.564531,90.5298331 167.676007,88.8497083 163.542454,86.6164115 L160.461471,89.7050742 C164.302168,91.9995852 167.867717,93.7862226 171.023593,94.9756138 C177.027024,97.2525767 181.471952,97.3125666 183.550837,95.1655818 C184.19923,94.5334435 184.640039,93.6858314 184.884458,92.642742 C182.136015,93.0810354 178.802878,92.6811029 175.072281,91.5735346" id="Fill-34" fill="#FFFFFF"></path>
                    <path d="M184.684812,45.9500051 C179.962088,42.665457 175.406856,39.9608111 171.199021,37.9221754 C173.154171,42.1753356 175.805538,46.7898634 179.063375,51.5876256 L184.684812,45.9500051" id="Fill-35" fill="#FFFFFF"></path>
                    <path d="M207.933325,58.373828 C204.471569,57.3370641 200.639826,55.6714266 196.562239,53.4550658 L189.185502,60.9034013 C192.972472,63.1801602 196.487549,64.9449646 199.59906,66.1290506 C205.562399,68.4076459 209.976596,68.4619224 212.040218,66.3177943 C213.413931,64.9690422 213.871835,62.6229073 213.413931,59.5109831 C211.712562,59.3365228 209.87891,58.9533221 207.933325,58.373828" id="Fill-36" fill="#FFFFFF"></path>
                    <path d="M157.898835,39.294597 C157.09679,37.1704654 156.561754,35.2403828 156.285994,33.5108786 C153.222919,33.4372175 150.801522,34.1770927 149.220836,35.7806998 C148.392945,36.5995413 147.794413,37.6399781 147.415065,38.8748718 C149.90871,38.7130624 152.974837,39.3731551 156.460405,40.6806897 C157.238435,40.975742 158.047399,41.3132361 158.865929,41.6770523 C158.511816,40.8596391 158.188637,40.0673238 157.898835,39.294597" id="Fill-37" fill="#FFFFFF"></path>
                    <path d="M182.640116,15.2129444 C176.26792,13.3112243 171.39419,13.6432091 168.777623,16.2943946 C167.057328,17.9983929 166.32407,20.6554958 166.527787,24.0496172 C168.113764,24.3567083 169.833042,24.861317 171.670357,25.5518128 C176.41913,27.3484486 181.99498,30.4093609 188.030362,34.5096897 L199.306408,23.2044536 C193.200407,19.3918314 187.510183,16.6629039 182.640116,15.2129444" id="Fill-38" fill="#FFFFFF"></path>
                    <path d="M170.877267,61.3880135 L129.95263,102.420685 C131.742934,103.570695 133.573941,104.809669 135.439748,106.147403 C136.843784,107.152744 138.233371,108.106664 139.607491,109.015491 L177.447889,71.0780118 C175.566004,67.9915936 173.3644,64.7429578 170.877267,61.3880135" id="Fill-39" fill="#FFFFFF"></path>
                    <path d="M184.331717,82.2234789 C182.020826,76.0716594 177.608664,68.5410927 171.560053,60.4212378 C165.559675,52.3621889 161.203683,44.8969174 158.95059,38.897113 C156.679792,32.8760877 156.625454,28.4194924 158.764579,26.3351501 L165.968329,19.1100422 C165.050282,22.1205548 165.371222,26.0172445 166.686934,30.4842462 C168.619494,37.012941 172.717839,44.8503946 178.557035,53.1720523 C184.361429,61.4337201 188.417851,69.2105717 190.301771,75.5797015 C192.196884,81.9680118 191.866176,86.8571872 189.217657,89.4855194 L185.923595,92.7874115 C186.545938,90.0635852 185.912402,86.4470523 184.331717,82.2234789" id="Fill-40" fill="#FFFFFF"></path>
                    <path d="M218.898607,29.5205312 L229.595251,18.7943811 L221.479152,10.6582024 L212.6243,19.5334401 C215.019649,22.964086 217.119903,26.3112766 218.898607,29.5205312" id="Fill-41" fill="#FFFFFF"></path>
                    <path d="M199.579319,32.6124587 L179.57928,52.6672395 C181.976664,56.0911518 184.078953,59.4352816 185.861117,62.643516 L206.144446,42.3055177 C204.263985,39.2201197 202.065231,35.9684233 199.579319,32.6124587" id="Fill-42" fill="#FFFFFF"></path>
                    <path d="M212.982483,53.3760995 C214.561744,57.6011012 215.19874,61.2145734 214.573955,63.9392159 L222.213834,56.2784671 C224.863574,53.6527875 225.193265,48.7652445 223.294488,42.3777504 C221.411993,36.0067841 217.351908,28.2344216 211.553822,19.9698971 C210.963634,19.1277943 210.397868,18.2920169 209.842277,17.4603204 L198.339518,28.9934772 C198.947615,29.8461906 199.567922,30.7066577 200.212652,31.5712057 C206.258413,39.6926931 210.66854,47.2265245 212.982483,53.3760995" id="Fill-43" fill="#FFFFFF"></path>
                    <path d="M147.135845,49.9668786 C145.818302,45.5015093 145.496548,41.6046155 146.412967,38.5971636 L143.552388,41.4652513 C141.415094,43.5477572 141.467193,48.0057808 143.743079,54.0245616 C145.542134,58.81457 148.687835,64.5452361 152.937391,70.7641872 L155.812216,67.8805919 C151.659532,61.3451636 148.693534,55.2284401 147.135845,49.9668786" id="Fill-44" fill="#FFFFFF"></path>
                    <path d="M146.128048,106.422867 L146.128048,107.029703 L146.526323,107.029703 C146.785396,107.029703 146.942508,106.952165 146.942508,106.71547 C146.942508,106.494487 146.79374,106.422867 146.535278,106.422867 L146.128048,106.422867 L146.128048,106.422867 Z M146.535278,107.309656 L146.128048,107.309656 L146.128048,108.159105 L145.800392,108.159105 L145.800392,106.123734 L146.546064,106.123734 C147.044264,106.123734 147.271792,106.353899 147.271792,106.71547 C147.271792,107.009298 147.113866,107.177841 146.872092,107.262725 L147.302115,108.159105 L146.938437,108.159105 L146.535278,107.309656 L146.535278,107.309656 Z M144.848359,107.147642 C144.848359,108.05096 145.568388,108.786754 146.470561,108.786754 C147.368053,108.786754 148.089914,108.05096 148.089914,107.147642 C148.089914,106.242897 147.368053,105.508123 146.470561,105.508123 C145.568388,105.508123 144.848359,106.242897 144.848359,107.147642 L144.848359,107.147642 Z M144.632228,107.147642 C144.632228,106.131079 145.456455,105.306116 146.470561,105.306116 C147.482835,105.306116 148.305027,106.131079 148.305027,107.147642 C148.305027,108.163798 147.482835,108.989985 146.470561,108.989985 C145.456455,108.989985 144.632228,108.163798 144.632228,107.147642 L144.632228,107.147642 Z" id="Fill-45" fill="#FFFFFF"></path>
                    <path d="M218.658462,97.7331079 L224.676342,97.7331079 L226.965863,91.0944317 L237.078425,91.0944317 L239.284506,97.7331079 L245.90682,97.7331079 L235.393337,67.8381501 L229.171944,67.8381501 L218.658462,97.7331079 L218.658462,97.7331079 Z M228.569546,86.346457 L232.061829,76.2073508 L232.141199,76.2073508 L235.554113,86.346457 L228.569546,86.346457 L228.569546,86.346457 Z M247.270357,97.7331079 L253.290273,97.7331079 L255.577759,91.0944317 L265.690321,91.0944317 L267.898437,97.7331079 L274.518716,97.7331079 L264.005233,67.8381501 L257.78384,67.8381501 L247.270357,97.7331079 L247.270357,97.7331079 Z M257.183477,86.346457 L260.673725,76.2073508 L260.75513,76.2073508 L264.166008,86.346457 L257.183477,86.346457 L257.183477,86.346457 Z M278.251145,97.7331079 L284.753386,97.7331079 L284.753386,87.1512192 L288.966105,87.1512192 C294.904615,87.1512192 301.166711,85.5017015 301.166711,77.4946847 C301.166711,69.648457 295.386941,67.958742 289.047511,67.958742 L278.251145,67.958742 L278.251145,97.7331079 L278.251145,97.7331079 Z M284.753386,82.0814621 L284.753386,73.3098803 L289.206251,73.3098803 C293.300933,73.3098803 294.784543,74.8796155 294.784543,77.6554739 C294.784543,80.512543 293.26023,82.0814621 289.206251,82.0814621 L284.753386,82.0814621 L284.753386,82.0814621 Z M299.801139,97.7331079 L305.821054,97.7331079 L308.10854,91.0944317 L318.221102,91.0944317 L320.429219,97.7331079 L327.049497,97.7331079 L316.536015,67.8381501 L310.316657,67.8381501 L299.801139,97.7331079 L299.801139,97.7331079 Z M309.714258,86.346457 L313.206541,76.2073508 L313.285912,76.2073508 L316.69679,86.346457 L309.714258,86.346457 L309.714258,86.346457 Z" id="Fill-46" fill="#FFFFFF"></path>
                    <polygon id="Stroke-47" stroke="#FFFFFF" stroke-width="1.3392" points="0 120.335214 335.824979 120.335214 335.824979 0.68641484 0 0.68641484"></polygon>
                </g>
            </g>
        </g>
    </g>
</svg>