<svg width="45px" height="27px" viewBox="0 0 45 27" version="1.1" xmlns="http://www.w3.org/2000/svg" xmlns:xlink="http://www.w3.org/1999/xlink">
    <g id="Content-Modules" stroke="none" stroke-width="1" fill="none" fill-rule="evenodd">
        <g id="Content-Copy-2" transform="translate(-260.000000, -1966.000000)" fill="#BBBBBB">
            <g id="ICONS" transform="translate(1.000000, 1807.000000)">
                <path d="M262.913043,182 L262.913043,164.976 L280.333424,178.199 C280.679728,178.462 281.08962,178.5935 281.499511,178.5935 C281.909891,178.5935 282.319783,178.462 282.666087,178.199 L300.086957,164.976 L300.086957,182 L262.913043,182 Z M296.126957,163 L281.499511,174.1025 L266.873043,163 L296.126957,163 Z M303.995598,160.957 C303.99413,160.8825 303.98337,160.8085 303.974076,160.7345 C303.96625,160.677 303.962337,160.619 303.950109,160.563 C303.935924,160.4995 303.913424,160.438 303.89288,160.3755 C303.872826,160.3125 303.855217,160.249 303.828804,160.1885 C303.806304,160.137 303.775978,160.088 303.748587,160.0375 C303.71288,159.972 303.678641,159.906 303.636087,159.845 C303.627772,159.833 303.62288,159.8195 303.614076,159.8075 C303.587663,159.771 303.554891,159.743 303.526033,159.7085 C303.480543,159.6545 303.436033,159.6 303.385163,159.5505 C303.338207,159.505 303.288315,159.4665 303.237935,159.4265 C303.188533,159.387 303.140109,159.348 303.086793,159.3135 C303.031522,159.278 302.974293,159.2485 302.916576,159.219 C302.861304,159.1905 302.806522,159.162 302.748315,159.139 C302.687174,159.115 302.624565,159.0975 302.560978,159.0795 C302.502772,159.063 302.445054,159.046 302.384402,159.035 C302.3125,159.022 302.240598,159.0175 302.167717,159.013 C302.125652,159.01 302.086033,159 302.043478,159 L260.956522,159 C260.913478,159 260.87288,159.01 260.830326,159.013 C260.758424,159.018 260.687011,159.0225 260.616087,159.035 C260.554946,159.046 260.496739,159.0635 260.438043,159.08 C260.374946,159.098 260.312826,159.115 260.252174,159.139 C260.193478,159.162 260.138696,159.1905 260.083424,159.219 C260.025217,159.249 259.968478,159.278 259.913207,159.3135 C259.859891,159.348 259.811467,159.387 259.762065,159.4265 C259.711685,159.4665 259.661793,159.505 259.614837,159.5505 C259.563967,159.6 259.519457,159.6545 259.473967,159.7085 C259.445598,159.743 259.412337,159.771 259.385924,159.8075 C259.37712,159.8195 259.372228,159.833 259.363913,159.845 C259.321359,159.906 259.28712,159.9715 259.251413,160.0375 C259.224022,160.088 259.193696,160.137 259.171196,160.189 C259.144783,160.249 259.127663,160.3125 259.10712,160.3755 C259.087065,160.438 259.064076,160.4995 259.049891,160.563 C259.037663,160.619 259.03375,160.677 259.025924,160.7345 C259.01663,160.8085 259.00587,160.8825 259.004402,160.957 C259.003913,160.9715 259,160.9855 259,161 L259,184 C259,185.1045 259.876033,186 260.956522,186 L302.043478,186 C303.123967,186 304,185.1045 304,184 L304,161 C304,160.9855 303.996087,160.9715 303.995598,160.957 L303.995598,160.957 Z" id="Page-1"></path>
            </g>
        </g>
    </g>
</svg>
