<svg width="45px" height="43px" viewBox="0 0 45 43" version="1.1" xmlns="http://www.w3.org/2000/svg" xmlns:xlink="http://www.w3.org/1999/xlink">
    <g stroke="none" stroke-width="1" fill="none" fill-rule="evenodd">
        <g transform="translate(-125.000000, -1957.000000)" fill="#BBBBBB">
            <g transform="translate(1.000000, 1807.000000)">
                <path d="M132.961359,165.94382 C132.961359,165.143247 133.618261,164.494382 134.42875,164.494382 L139.032935,164.494382 C139.842935,164.494382 140.500326,165.143247 140.500326,165.94382 C140.500326,166.744393 139.842935,167.393258 139.032935,167.393258 L134.42875,167.393258 C133.618261,167.393258 132.961359,166.744393 132.961359,165.94382 L132.961359,165.94382 Z M165.086957,179.47191 L159.281467,179.47191 L158.665163,175.533303 C158.537989,174.707124 157.818967,174.157303 156.972772,174.157303 L136.027717,174.157303 C135.181522,174.157303 134.462011,174.707124 134.335326,175.533303 L133.719022,179.47191 L127.913043,179.47191 L127.913043,161.11236 L165.086957,161.11236 L165.086957,179.47191 Z M135.641793,189.617978 L137.498533,177.539326 L155.501957,177.539326 L157.358696,189.617978 L135.641793,189.617978 Z M138.673913,157.247191 L154.326087,157.247191 L154.326087,152.898876 L138.673913,152.898876 L138.673913,157.247191 Z M167.043478,157.247191 L157.26087,157.247191 L157.26087,151.449438 C157.26087,150.648865 156.832391,150 156.021902,150 L136.978587,150 C136.168587,150 135.73913,150.648865 135.73913,151.449438 L135.73913,157.247191 L125.956522,157.247191 C124.876033,157.247191 124,158.077236 124,159.144506 L124,181.310281 C124,182.377551 124.876033,183.337079 125.956522,183.337079 L133.12375,183.337079 L131.957663,190.860146 C131.882337,191.34764 132.026141,191.939978 132.351413,192.313933 C132.676685,192.687888 133.151141,193 133.650054,193 L159.350924,193 C159.849837,193 160.323804,192.664213 160.649076,192.290258 C160.974348,191.916303 161.118152,191.408034 161.043315,190.920539 L159.876739,183.337079 L167.043478,183.337079 C168.123967,183.337079 169,182.377551 169,181.310281 L169,159.144506 C169,158.077236 168.123967,157.247191 167.043478,157.247191 L167.043478,157.247191 Z" id="Fill-1"></path>
            </g>
        </g>
    </g>
</svg>
