<?xml version="1.0" encoding="UTF-8"?>
<svg width="42px" height="36px" viewBox="0 0 42 36" version="1.1" xmlns="http://www.w3.org/2000/svg" xmlns:xlink="http://www.w3.org/1999/xlink">
    <!-- Generator: Sketch 40.3 (33839) - http://www.bohemiancoding.com/sketch -->
    <title>Fill 1</title>
    <desc>Created with Sketch.</desc>
    <defs></defs>
    <g id="Content-Modules" stroke="none" stroke-width="1" fill="none" fill-rule="evenodd">
        <g id="Content-Copy-2" transform="translate(-192.000000, -1962.000000)" fill="#BBBBBB">
            <g id="ICONS" transform="translate(1.000000, 1807.000000)">
                <path d="M212.262749,179.265459 C211.503819,180.029243 211.510656,181.261514 212.277889,182.017514 C212.658819,182.392595 213.155005,182.579892 213.65168,182.579892 C214.155191,182.579892 214.658214,182.387243 215.040121,182.002432 L222.686563,174.302324 C223.439633,173.544378 223.439633,172.323784 222.686563,171.565351 L215.040121,163.86573 C214.28168,163.101459 213.044145,163.095622 212.277889,163.850649 C211.510656,164.606649 211.503819,165.838919 212.262749,166.602703 L216.627819,170.998108 L192.949098,171.054054 C191.870284,171.056486 190.997563,171.92973 191.000005,173.004378 C191.002935,174.077568 191.876633,174.945946 192.953493,174.945946 L192.958377,174.945946 L216.607307,174.890486 L212.262749,179.265459 Z M232.999517,156.945946 L232.999517,189.054054 C232.999517,190.128703 232.125331,191 231.046517,191 L205.587191,191 C204.508377,191 203.697191,190.128703 203.697191,189.054054 L203.697191,180.154757 C203.697191,179.080108 204.571866,178.208811 205.65068,178.208811 C206.729493,178.208811 207.604168,179.080108 207.604168,180.154757 L207.604168,187.108108 L229.09254,187.108108 L229.09254,158.891892 L207.604168,158.891892 L207.604168,165.845243 C207.604168,166.919892 206.729493,167.791189 205.65068,167.791189 C204.571866,167.791189 203.697191,166.919892 203.697191,165.845243 L203.697191,156.945946 C203.697191,155.871297 204.508377,155 205.587191,155 L231.046517,155 C232.125331,155 232.999517,155.871297 232.999517,156.945946 L232.999517,156.945946 Z" id="Fill-1"></path>
            </g>
        </g>
    </g>
</svg>