<?xml version="1.0" standalone="no"?>
<!DOCTYPE svg PUBLIC "-//W3C//DTD SVG 20010904//EN"
 "http://www.w3.org/TR/2001/REC-SVG-20010904/DTD/svg10.dtd">
<svg version="1.0" xmlns="http://www.w3.org/2000/svg"
 width="260.000000pt" height="260.000000pt" viewBox="0 0 260.000000 260.000000"
 preserveAspectRatio="xMidYMid meet">
<metadata>
Created by potrace 1.11, written by Peter Selinger 2001-2013
</metadata>
<g transform="translate(0.000000,260.000000) scale(0.100000,-0.100000)"
fill="#000000" stroke="none">
<path d="M1181 1756 c-39 -40 -42 -46 -31 -67 9 -18 4 -15 -16 9 l-29 32 -57
-58 -58 -58 31 -45 c17 -24 22 -34 11 -21 -11 12 -24 22 -29 22 -5 0 -52 -44
-105 -97 l-97 -98 33 -52 33 -52 95 94 c53 51 100 101 105 110 8 13 16 5 41
-43 18 -33 38 -85 45 -117 l13 -57 47 51 c39 42 47 57 47 88 0 51 -16 106 -51
177 -16 32 -23 53 -15 47 11 -9 22 -4 52 26 68 66 68 67 37 99 -56 58 -55 58
-102 10z"/>
<path d="M727 1759 c-35 -9 -56 -35 -58 -69 -1 -17 -3 -20 -6 -7 -8 29 -15 24
-70 -46 -16 -20 -21 -38 -18 -65 3 -20 2 -29 -1 -19 -3 9 -12 17 -20 17 -29 0
-73 -31 -74 -51 0 -4 15 -9 33 -12 17 -4 42 -9 54 -13 19 -5 21 -3 17 18 -4
20 -3 21 5 3 4 -11 7 -23 4 -27 -2 -5 0 -8 5 -8 5 0 15 -13 22 -30 7 -16 34
-61 61 -100 26 -38 42 -70 36 -70 -13 0 -424 -407 -416 -413 2 -2 25 -18 51
-36 l47 -31 191 191 c125 124 189 196 186 206 -3 8 -2 12 2 9 17 -10 83 -154
90 -195 l7 -43 24 26 c19 21 24 36 24 78 0 71 -34 149 -124 289 -69 108 -118
208 -133 273 -7 27 -6 28 21 22 33 -8 113 -45 166 -77 l37 -23 55 54 c30 30
55 57 55 61 0 4 -26 20 -57 37 -98 50 -164 66 -216 51z m28 -515 c9 -15 12
-23 6 -20 -11 7 -35 46 -28 46 3 0 12 -12 22 -26z"/>
<path d="M722 1512 c1 -4 18 -35 37 -70 l34 -63 29 28 c15 14 28 30 28 34 0 8
-83 61 -113 72 -10 4 -17 4 -15 -1z"/>
<path d="M435 1484 c-22 -34 -14 -90 25 -173 44 -93 69 -125 86 -110 19 16 18
23 -9 67 -38 61 -71 153 -71 199 -1 50 -7 53 -31 17z"/>
<path d="M934 1328 l-38 -42 70 -33 c109 -51 190 -40 182 24 -2 21 -12 28 -58
42 -30 10 -69 25 -87 34 l-31 17 -38 -42z"/>
<path d="M1253 1072 c-29 -81 -53 -150 -53 -153 0 -5 30 -5 62 0 3 1 9 14 13
30 6 26 11 29 51 33 54 4 58 2 71 -37 8 -24 15 -30 41 -31 23 -1 32 3 32 15 0
9 -22 77 -49 151 l-48 135 -34 3 -34 3 -52 -149z m99 -2 c3 -30 0 -35 -19 -38
-26 -4 -28 7 -11 55 14 39 26 32 30 -17z"/>
<path d="M1543 1072 c-29 -81 -53 -151 -53 -154 0 -4 15 -5 32 -4 27 2 34 8
42 33 7 25 15 32 40 35 55 6 72 -1 84 -36 11 -29 17 -33 45 -32 39 2 40 -5
-21 166 l-48 135 -35 3 -34 3 -52 -149z m105 -2 c9 -34 8 -35 -19 -36 -33 -2
-33 -4 -17 48 13 43 22 40 36 -12z"/>
<path d="M1802 1067 l0 -153 34 0 c37 0 38 3 35 69 -2 36 -1 37 31 38 100 2
148 43 134 114 -3 11 -5 26 -5 33 -1 7 -16 21 -33 32 -26 16 -51 20 -114 20
l-82 0 0 -153z m158 78 c19 -22 4 -65 -23 -66 -12 -1 -29 -2 -37 -3 -8 0 -18
4 -22 9 -10 13 -10 59 -1 68 12 13 71 7 83 -8z"/>
<path d="M2120 1207 c0 -7 -22 -75 -50 -152 -27 -77 -50 -140 -50 -141 0 -1
53 2 62 4 3 1 11 16 17 32 9 28 13 30 60 30 47 0 50 -2 62 -34 11 -29 17 -34
43 -33 17 1 31 7 31 13 0 5 -22 74 -50 152 l-49 142 -38 0 c-24 0 -38 -5 -38
-13z m58 -130 c16 -44 17 -42 -19 -45 -27 -2 -30 0 -24 20 4 13 9 31 11 41 8
26 19 21 32 -16z"/>
<path d="M456 1115 c-8 -22 31 -40 51 -24 13 12 13 14 -3 26 -23 17 -41 16
-48 -2z"/>
<path d="M622 1018 c-19 -19 -16 -23 42 -51 75 -37 134 -49 165 -34 39 19 38
37 -3 37 -20 0 -38 0 -41 1 -4 0 -113 43 -140 55 -6 2 -16 -1 -23 -8z"/>
<path d="M454 823 c2 -10 9 -18 17 -18 20 0 17 29 -3 33 -11 2 -16 -3 -14 -15z"/>
</g>
</svg>
